<svg width="24" height="24" viewBox="0 0 24 24" fill="none" xmlns="http://www.w3.org/2000/svg">
<g clip-path="url(#clip0_991_85548)">
<path d="M2.99993 5L11 10L19 5L18.9999 8.99999H19.9999V3.99999C19.9999 2.89999 20.0999 2.99999 18.9999 2.99999L2.99993 3C1.89993 3 1.99993 2.9 1.99993 4L2 16.5C2 17 1.89993 17 2.99993 17H13L12.9999 16H2.99993V5ZM18.9999 3.99999L10.9999 8.99999L2.99993 3.99999H18.9999Z" fill="#94A3B8"/>
<path d="M20.0521 13V17C20.0521 18.1 19.1521 19 18.0521 19C16.9521 19 16.0521 18.1 16.0521 17V12.5C16.0521 12.22 16.2721 12 16.5521 12C16.8321 12 17.0521 12.22 17.0521 12.5V17H18.0521V12C18.0521 10.62 14.5521 11 16.5521 11C15.1721 11 15.0521 11.12 15.0521 12.5L15.052 17.1182C15.052 19.1182 17 20 18.0522 20C20 20 20.948 18 21 17.1182V13L20.0521 13Z" fill="#94A3B8"/>
</g>
<defs>
<clipPath id="clip0_991_85548">
<rect width="24" height="24" fill="white"/>
</clipPath>
</defs>
</svg>
