<svg width="18" height="17" viewBox="0 0 18 17" fill="none" xmlns="http://www.w3.org/2000/svg">
<circle cx="8.75" cy="9" r="3.5" fill="#94A3B8"/>
<path fill-rule="evenodd" clip-rule="evenodd" d="M5.62741 5.33801C6.53401 4.43141 7.73937 3.92677 9.02148 3.92677C10.3036 3.92677 11.509 4.43407 12.4156 5.34067C12.9908 5.91589 13.4017 6.60714 13.6255 7.37857H17.2286V2.53571C17.2286 1.39957 16.3505 0.521423 15.2143 0.521423H2.87148C1.73534 0.521423 0.771484 1.39957 0.771484 2.53571V7.37857H4.41743C4.64123 6.60714 5.05218 5.91324 5.62741 5.33801V5.33801ZM15.8572 4.08714C15.8572 4.39009 15.6116 4.63571 15.3086 4.63571H13.6629C13.36 4.63571 13.1143 4.39014 13.1143 4.08714V2.44142C13.1143 2.13847 13.3599 1.89285 13.6629 1.89285H15.3086C15.6116 1.89285 15.8572 2.13842 15.8572 2.44142V4.08714V4.08714Z" fill="#94A3B8"/>
<path fill-rule="evenodd" clip-rule="evenodd" d="M12.4156 12.1262C11.509 13.0328 10.3036 13.5268 9.02148 13.5268C7.73937 13.5268 6.53401 13.0355 5.62741 12.1289C4.72248 11.224 4.22346 9.99286 4.22157 8.75H0.771484V14.8786C0.771484 16.0147 1.73534 16.9786 2.87148 16.9786H15.2143C16.3505 16.9786 17.2286 16.0147 17.2286 14.8786V8.75H13.8214C13.8196 9.99286 13.3205 11.2213 12.4156 12.1262V12.1262Z" fill="#94A3B8"/>
</svg>
