<svg width="19" height="19" viewBox="0 0 19 19" fill="none" xmlns="http://www.w3.org/2000/svg">
<path d="M6.00231 15.8334H3.37622V7.37647H6.00231V15.8334ZM4.68785 6.22287C3.84811 6.22287 3.16699 5.52732 3.16699 4.68757C3.16699 3.84761 3.8479 3.16669 4.68785 3.16669C5.5278 3.16669 6.20871 3.84761 6.20871 4.68757C6.20871 5.52732 5.52731 6.22287 4.68785 6.22287ZM15.8309 15.8334H13.2105V11.7166C13.2105 10.7355 13.1907 9.47726 11.8451 9.47726C10.4798 9.47726 10.2706 10.5432 10.2706 11.6459V15.8334H7.64729V7.37647H10.1659V8.53007H10.2027C10.5533 7.86562 11.4097 7.16441 12.6874 7.16441C15.3452 7.16441 15.8338 8.9146 15.8338 11.1879V15.8334H15.8309Z" fill="#94A3B8"/>
</svg>
