<svg width="24" height="24" viewBox="0 0 24 24" fill="none" xmlns="http://www.w3.org/2000/svg">
<path d="M16.5 21.5C16.5 21.8989 16.1636 22.3947 15.3119 22.8206C14.4902 23.2314 13.3199 23.5 12 23.5C10.6801 23.5 9.50984 23.2314 8.68807 22.8206C7.8364 22.3947 7.5 21.8989 7.5 21.5C7.5 21.1011 7.8364 20.6053 8.68807 20.1794C9.50984 19.7686 10.6801 19.5 12 19.5C13.3199 19.5 14.4902 19.7686 15.3119 20.1794C16.1636 20.6053 16.5 21.1011 16.5 21.5Z" stroke="#94A3B8"/>
<path d="M12 3C8.13 3 6 5.25 6 9.12C6 14.37 12 21 12 21C12 21 18 14.37 18 9.12C18 5.25 15.87 3 12 3ZM7 9.12C7 6.36 9.24 4.12 12 4.12C14.76 4.12 17 6.36 17 9.12C17 12 14.12 16.31 12 19C9.92 16.33 7 11.97 7 9.12Z" fill="#94A3B8"/>
<path d="M11.9943 11.1375C13.0958 11.2195 14.0553 10.393 14.1373 9.29153C14.2193 8.19001 13.3929 7.23055 12.2914 7.14853C11.1898 7.0665 10.2304 7.89296 10.1483 8.99448C10.0663 10.096 10.8928 11.0555 11.9943 11.1375Z" fill="#94A3B8"/>
</svg>
