<svg width="21" height="16" viewBox="0 0 21 16" fill="none" xmlns="http://www.w3.org/2000/svg">
<path fill-rule="evenodd" clip-rule="evenodd" d="M20.5 1.89583C19.7626 2.21667 18.9743 2.43333 18.1436 2.53333C18.9912 2.03333 19.6439 1.24167 19.949 0.3C19.1565 0.7625 18.2792 1.1 17.3426 1.27917C16.5924 0.491667 15.5244 0 14.3462 0C12.0787 0 10.2436 1.80833 10.2436 4.0375C10.2436 4.35417 10.2775 4.6625 10.3495 4.95833C6.9378 4.79167 3.91174 3.18333 1.89013 0.7375C1.53836 1.33333 1.33492 2.02917 1.33492 2.76667C1.33492 4.16667 2.06389 5.40417 3.16582 6.12917C2.48771 6.1125 1.85198 5.92917 1.30102 5.625C1.30102 5.64167 1.30102 5.65833 1.30102 5.675C1.30102 7.63333 2.71657 9.2625 4.59409 9.63333C4.25079 9.725 3.88631 9.775 3.51335 9.775C3.25058 9.775 2.99205 9.75 2.742 9.7C3.2633 11.3042 4.78057 12.4708 6.57756 12.5042C5.17472 13.5875 3.40316 14.2333 1.47902 14.2333C1.14844 14.2333 0.822102 14.2125 0.5 14.175C2.30971 15.3333 4.46694 16 6.78099 16C14.3377 16 18.4657 9.84583 18.4657 4.50833C18.4657 4.33333 18.4614 4.15833 18.453 3.9875C19.254 3.41667 19.949 2.70833 20.5 1.89583V1.89583Z" fill="#94A3B8"/>
</svg>
